# xmcd CD database file
#
# Track frame offsets:
#	150
#	12903
#	28347
#	40778
#	54719
#	67798
#	80709
#	93783
#	106478
#	120711
#	133052
#	145876
#	159279
#	169347
#	182011
#	195211
#	204674
#
# Disc length: 2939 seconds
#
# Revision: 3
# Processed by: cddbd v1.5.2PL0 Copyright (c) Steve Scherf et al.
# Submitted via: CDex 1.70beta2
#
DISCID=e50b7911
DTITLE=Blues Is Black - Disc 2 - Blues Is Black [CD2]
DYEAR=2002
DGENRE=Blues
TTITLE0=Joe Lee Williamson - Black Gal Blues
TTITLE1=Davis - C.C. Rider
TTITLE2=Brownie McGhee - Death Of Blind Boy Fuller (2)
TTITLE3=Blid Willie McTell - Georgia Rag
TTITLE4=Big joe Turner - Howlin'  Winds
TTITLE5=Jimmy Yancey - Yangey Stomp
TTITLE6=Memphis Minnie - Joe Louis Strut
TTITLE7=Champion Jack Dupree - Gamblin Man Blues
TTITLE8=John Lee Hooker - Stomp Boogie
TTITLE9=Muddy Waters - I Can't Be Satisfied
TTITLE10=Bukka White - Pinebluff, Arkansas
TTITLE11=Robert Johnson - Preaching blues
TTITLE12=Huddie "Leadbelly" Ledbetter - Midnight Special
TTITLE13=Brownie McGhee - Step It Up And Go No
TTITLE14=Peter Chatman - Jasper's Gal
TTITLE15=Lightnin Hopkins - Can't Do Like You Used To
TTITLE16=Bessie Smith - Cemetery Blues
EXTD=YEAR: 2002
EXTT0=
EXTT1=
EXTT2=
EXTT3=
EXTT4=
EXTT5=
EXTT6=
EXTT7=
EXTT8=
EXTT9=
EXTT10=
EXTT11=
EXTT12=
EXTT13=
EXTT14=
EXTT15=
EXTT16=
PLAYORDER=
